<svg width="28" height="28" viewBox="0 0 28 28" fill="none" xmlns="http://www.w3.org/2000/svg">
<path d="M19.2033 6.7959C18.8515 6.18493 17.5573 5.35221 14.8117 5.83301C12.0694 6.31326 10.742 6.99737 9.87418 7.75781L9.87027 7.76074C9.32026 8.2428 8.2224 9.20543 8.22574 11.6064C8.22711 12.5677 8.77458 14.0116 9.32339 14.9736C9.87225 15.9357 10.2472 17.4041 10.4211 17.8604C10.9698 19.3005 10.9699 21.6985 10.9699 23.1426V23.1514C10.9699 24.5945 11.5189 26.9998 14.8117 27C18.1048 27 18.5042 23.5897 18.1056 22.1895C17.5583 20.2666 15.9122 18.824 14.2668 17.3818L14.2628 17.3789C12.6168 15.936 12.6166 14.012 13.1652 13.0498C13.714 12.0877 15.3614 12.0873 16.4591 12.5684C17.5569 13.0493 19.2033 13.0495 19.7521 11.6064C20.3009 10.1634 19.8609 7.94694 19.2033 6.7959ZM9.49136 6.5C9.35277 6.05883 8.91578 5.77944 8.51578 5.87598C8.11584 5.97253 7.90363 6.4085 8.04214 6.84961C8.18074 7.29077 8.61773 7.57016 9.01773 7.47363C9.41772 7.3771 9.62993 6.94115 9.49136 6.5ZM11.1603 5.1543C11.0126 4.68428 10.569 4.3811 10.1691 4.47754C9.7691 4.57407 9.56439 5.03377 9.71207 5.50391C9.85977 5.97405 10.3042 6.2772 10.7043 6.18066C11.1041 6.08399 11.308 5.62434 11.1603 5.1543ZM13.1662 3.76465C12.8672 3.13119 12.2804 3.21212 11.8849 3.35547C11.4895 3.49881 11.1936 4.13112 11.4923 4.76465C11.7913 5.39831 12.4093 5.38263 12.8048 5.23926C13.2001 5.09548 13.465 4.39804 13.1662 3.76465ZM18.1066 1.02246C16.6602 1.32019 16.383 2.44201 16.6603 3.47656C16.9377 4.51094 17.5524 5.26917 18.7648 5.01953C19.6499 4.83711 20.1426 3.85081 19.8654 2.81641C19.5881 1.78198 18.9917 0.840468 18.1066 1.02246ZM14.5353 1.67285C13.9386 1.76645 13.555 2.64318 13.715 3.42773C13.846 4.07023 14.2647 4.64697 15.1154 4.51367C15.7119 4.41985 16.0654 3.70821 15.9054 2.92383C15.7453 2.13939 15.132 1.57935 14.5353 1.67285Z" fill="url(#paint0_linear_810_4376)"/>
<defs>
<linearGradient id="paint0_linear_810_4376" x1="20.0002" y1="27.0003" x2="7.52452" y2="26.77" gradientUnits="userSpaceOnUse">
<stop stop-color="#86EFAC"/>
<stop offset="1" stop-color="#4ADE80"/>
</linearGradient>
</defs>
</svg>
