<svg width="400" height="400" viewBox="0 0 400 400" fill="none" xmlns="http://www.w3.org/2000/svg">
<rect width="400" height="400" fill="#262626"/>
<rect x="120" y="190" width="220" height="40" rx="20" fill="#4ADE80"/>
<path d="M171 176L191.785 140H150.215L171 176Z" fill="white"/>
<path d="M235 176L255.785 140H214.215L235 176Z" fill="white"/>
<path d="M299 176L319.785 140H278.215L299 176Z" fill="white"/>
<path d="M171 244L191.785 280H150.215L171 244Z" fill="white"/>
<path d="M235 244L255.785 280H214.215L235 244Z" fill="white"/>
<path d="M299 244L319.785 280H278.215L299 244Z" fill="white"/>
<path d="M125.5 72.7285C153.673 72.7285 160.317 88.4514 167.718 100H320C331.046 100 340 108.954 340 120C340 131.046 331.046 140 320 140H120C97.9086 140 80 157.909 80 180V240C80 262.091 97.9086 280 120 280H320C331.046 280 340 288.954 340 300C340 311.046 331.046 320 320 320H120C75.8173 320 40 284.183 40 240V180C40 146.275 60.8684 117.425 90.3965 105.656C94.3776 91.8126 105.534 72.7285 125.5 72.7285Z" fill="#4ADE80"/>
<circle cx="129" cy="105" r="15" fill="#262626"/>
</svg>
