<svg width="100" height="100" viewBox="0 0 100 100" fill="none" xmlns="http://www.w3.org/2000/svg">
<path d="M28.8347 33.4521C33.1196 30.475 38.2717 30.2265 40.3123 30.4746C42.8628 30.7227 48.4231 31.3684 50.2595 31.9639C52.555 32.7082 54.8507 34.1966 57.1462 37.1738C59.4417 40.151 61.7371 40.8956 64.7976 40.1514C67.8583 39.4071 70.4096 38.6624 72.45 41.6396C74.4902 44.617 71.6845 47.5943 68.6238 49.083C65.5631 50.5717 59.4415 51.3162 51.7898 48.3389C51.0246 50.5718 49.3414 56.3781 48.7292 61.7373C51.2799 63.226 56.9936 66.9476 59.4421 69.9248C62.5026 73.6463 64.798 78.8563 65.5632 84.8105C66.3284 90.7652 65.5629 92.9988 61.7371 93.7432C57.9114 94.4873 55.616 91.5099 54.0857 86.2998C52.5553 81.0895 51.0243 78.856 47.9636 76.623C45.5151 74.8369 41.8425 73.8946 40.3123 73.6465C40.0571 75.8798 38.55 81.9128 32.6609 85.5557C24.2378 90.7659 17.3504 90.7656 15.8201 90.7656C13.5245 90.7656 9.69952 90.7652 8.93433 86.2998C8.67927 85.0593 8.85763 81.6139 12.7664 80.3447C17.3513 78.856 25.009 76.6234 25.7742 75.1348C26.5394 73.6459 30.4346 52.6998 32.6609 43.873C30.8755 44.6174 27.151 46.9995 26.5388 50.5723C25.7738 55.038 26.539 58.7596 21.1833 58.7598C15.8273 58.7598 16.5916 51.3166 18.1218 46.8506C19.6522 42.3846 23.4785 37.1738 28.8347 33.4521ZM50.2556 7C56.1726 7.00026 60.9693 11.7969 60.9695 17.7139C60.9695 23.631 56.1727 28.4285 50.2556 28.4287C44.3383 28.4287 39.5408 23.6312 39.5408 17.7139C39.541 11.7967 44.3384 7 50.2556 7Z" fill="url(#paint0_linear_1452_2132)"/>
<path d="M69.5 70L81.5 61.5" stroke="#FFE16A" stroke-width="3" stroke-linecap="round" stroke-linejoin="round"/>
<path d="M72.5 77L84.5 73.5" stroke="#FFE16A" stroke-width="3" stroke-linecap="round" stroke-linejoin="round"/>
<path d="M72.5 84L88 84.5" stroke="#FFE16A" stroke-width="3" stroke-linecap="round" stroke-linejoin="round"/>
<defs>
<linearGradient id="paint0_linear_1452_2132" x1="8.85815" y1="93.8563" x2="75.6575" y2="91.8787" gradientUnits="userSpaceOnUse">
<stop stop-color="#86EFAC"/>
<stop offset="1" stop-color="#4ADE80"/>
</linearGradient>
</defs>
</svg>
