<svg width="24" height="24" viewBox="0 0 24 24" fill="none" xmlns="http://www.w3.org/2000/svg">
<g clip-path="url(#clip0_351_2230)">
<path d="M16.3663 3.48406C14.9076 6.48719 15.3583 10.3423 15.766 11.8944L20.3356 13.2482C21.7176 10.7377 23.8524 5.11794 21.3356 2.72337C18.8188 0.328795 16.9741 2.23276 16.3663 3.48406Z" stroke="black" stroke-width="2" stroke-linejoin="round"/>
<path d="M19.4862 16.4318L14.9167 15.078C14.4671 16.1472 13.5928 18.8081 16.1397 19.7345C18.1773 20.4755 19.2197 17.8415 19.4862 16.4318Z" stroke="black" stroke-width="2" stroke-linejoin="round"/>
<path d="M7.75258 6.81889C9.39651 9.58627 9.24511 13.3112 8.96392 14.8277L4.61613 16.4634C3.08439 14.7942 0.0746179 8.74857 2.34633 6.26874C4.61804 3.78892 7.06758 5.66582 7.75258 6.81889Z" stroke="black" stroke-width="2" stroke-linejoin="round"/>
<path d="M5.68036 19.4488L10.0281 17.8132C10.5455 18.8036 11.595 21.2867 9.18451 22.3628C7.25612 23.2238 6.04491 20.7789 5.68036 19.4488Z" stroke="black" stroke-width="2" stroke-linejoin="round"/>
</g>
<defs>
<clipPath id="clip0_351_2230">
<rect width="24" height="24" fill="white"/>
</clipPath>
</defs>
</svg>
