<svg width="24" height="24" viewBox="0 0 24 24" fill="none" xmlns="http://www.w3.org/2000/svg">
<path d="M10.2393 1.65784C11.3481 0.769738 12.9285 0.781176 14.0244 1.68518L20.9092 7.3678C21.5996 7.9376 21.9999 8.78611 22 9.68127V19.4703C22 20.261 21.6774 21.0146 21.1123 21.566C20.5479 22.1165 19.7877 22.4215 19 22.4215H5C4.21232 22.4215 3.45207 22.1165 2.8877 21.566C2.32261 21.0146 2.00001 20.261 2 19.4703V9.69885C2.00019 8.7886 2.4137 7.92726 3.12402 7.35803L10.2393 1.65784ZM12.752 3.22815C12.3868 2.92699 11.8598 2.92274 11.4902 3.21838L4.375 8.91858C4.13825 9.10823 4.00019 9.39553 4 9.69885V19.4703C4.00001 19.7144 4.09943 19.954 4.28418 20.1344C4.46992 20.3155 4.72699 20.4215 5 20.4215H11V14.026C11 13.4737 11.4477 13.026 12 13.026C12.5523 13.026 13 13.4737 13 14.026V20.4215H19C19.273 20.4215 19.5301 20.3155 19.7158 20.1344C19.9006 19.954 20 19.7144 20 19.4703V9.68127C19.9999 9.38303 19.8667 9.09966 19.6367 8.90979L12.752 3.22815Z" fill="white" fill-opacity="0.6"/>
</svg>
