<svg width="28" height="28" viewBox="0 0 28 28" fill="none" xmlns="http://www.w3.org/2000/svg">
<path d="M13.8076 8.25293C14.5219 8.32242 16.0787 8.50322 16.5928 8.66992C17.2354 8.87836 17.8778 9.29537 18.5205 10.1289C19.1632 10.9625 19.8061 11.1703 20.6631 10.9619C21.52 10.7535 22.2344 10.5455 22.8057 11.3789C23.3769 12.2125 22.5913 13.0461 21.7344 13.4629C20.8774 13.8797 19.1638 14.0884 17.0215 13.2549C16.8073 13.8801 16.3355 15.5054 16.1641 17.0059C16.8782 17.4226 18.4774 18.4652 19.1631 19.2988C20.02 20.3408 20.6637 21.7996 20.8779 23.4668C21.0922 25.1339 20.8775 25.7593 19.8066 25.9678C18.7354 26.1762 18.0926 25.3427 17.6641 23.8838C17.2356 22.4251 16.8069 21.7999 15.9502 21.1748C15.2648 20.6747 14.2363 20.4104 13.8076 20.3408C13.7362 20.966 13.3141 22.6557 11.665 23.6758C9.30658 25.1347 7.37772 25.1348 6.94922 25.1348C6.30643 25.1348 5.23569 25.134 5.02148 23.8838C4.95009 23.5364 5.00038 22.5721 6.09473 22.2168C7.37836 21.8 9.52161 21.1746 9.73633 20.7578C9.95057 20.341 11.0417 14.4766 11.665 12.0049C11.1652 12.2133 10.1227 12.8797 9.95117 13.8799C9.73693 15.1303 9.9508 16.1728 8.45117 16.1729C6.95143 16.1729 7.16525 14.0884 7.59375 12.8379C8.02226 11.5874 9.09403 10.129 10.5938 9.08691C11.7935 8.25328 13.2363 8.18346 13.8076 8.25293ZM16.5918 2C18.2484 2.00026 19.5918 3.34331 19.5918 5C19.5918 6.65669 18.2484 7.99974 16.5918 8C14.9349 8 13.5918 6.65685 13.5918 5C13.5918 3.34315 14.9349 2 16.5918 2Z" fill="url(#paint0_linear_810_4410)"/>
<defs>
<linearGradient id="paint0_linear_810_4410" x1="5" y1="25.9995" x2="23.7034" y2="25.4383" gradientUnits="userSpaceOnUse">
<stop stop-color="#86EFAC"/>
<stop offset="1" stop-color="#4ADE80"/>
</linearGradient>
</defs>
</svg>
