<svg width="28" height="28" viewBox="0 0 28 28" fill="none" xmlns="http://www.w3.org/2000/svg">
<path d="M8.79822 6.79541C9.15016 6.18446 10.4436 5.35277 13.1888 5.8335C15.9316 6.31383 17.2595 6.99771 18.1273 7.7583L18.1302 7.76123C18.6802 8.24326 19.778 9.20516 19.7748 11.606C19.7734 12.5673 19.226 14.012 18.6771 14.9741C18.1284 15.9362 17.7533 17.4036 17.5795 17.8599C17.0306 19.3001 17.0306 21.6989 17.0306 23.1431V23.1519C17.0306 24.595 16.4816 27.0004 13.1888 27.0005C9.89597 27.0005 9.49746 23.5904 9.89587 22.1899C10.4432 20.2672 12.0885 18.8244 13.7338 17.3823L13.7377 17.3794C15.3842 15.9362 15.3842 14.0114 14.8353 13.0493C14.2865 12.0872 12.6401 12.0878 11.5424 12.5688C10.4446 13.0499 8.79825 13.0491 8.24939 11.606C7.70059 10.1628 8.14047 7.94632 8.79822 6.79541ZM18.5101 6.49951C18.6489 6.05872 19.085 5.77916 19.4847 5.87549C19.8846 5.97199 20.0967 6.40808 19.9584 6.84912C19.8198 7.29029 19.3828 7.56968 18.9828 7.47314C18.583 7.37647 18.3716 6.94058 18.5101 6.49951ZM16.8402 5.15381C16.988 4.68398 17.4316 4.38167 17.8314 4.47803C18.2313 4.57454 18.436 5.03338 18.2885 5.50342C18.1408 5.97342 17.6972 6.27644 17.2972 6.18018C16.8972 6.08364 16.6925 5.62395 16.8402 5.15381ZM14.8344 3.76416C15.1333 3.13111 15.7202 3.21172 16.1156 3.35498C16.5111 3.49835 16.8072 4.13148 16.5082 4.76514C16.2092 5.39841 15.5922 5.38298 15.1967 5.23975C14.8011 5.09638 14.5354 4.39782 14.8344 3.76416ZM9.8949 1.02197C11.3409 1.31979 11.6184 2.44165 11.3412 3.47607C11.0639 4.51052 10.449 5.26848 9.23669 5.01904C8.35142 4.83676 7.85783 3.85047 8.13513 2.81592C8.41246 1.78144 9.00968 0.839699 9.8949 1.02197ZM13.4652 1.67236C14.0619 1.76586 14.4454 2.64273 14.2855 3.42725C14.1545 4.06966 13.7366 4.64726 12.8861 4.51416C12.2894 4.42066 11.9352 3.70879 12.0951 2.92432C12.2551 2.13979 12.8685 1.57899 13.4652 1.67236Z" fill="url(#paint0_linear_810_4388)"/>
<defs>
<linearGradient id="paint0_linear_810_4388" x1="8.00037" y1="26.9998" x2="20.4768" y2="26.7694" gradientUnits="userSpaceOnUse">
<stop stop-color="#86EFAC"/>
<stop offset="1" stop-color="#4ADE80"/>
</linearGradient>
</defs>
</svg>
